<?xml version="1.0" standalone="no"?>
<!DOCTYPE svg PUBLIC "-//W3C//DTD SVG 20010904//EN"
 "http://www.w3.org/TR/2001/REC-SVG-20010904/DTD/svg10.dtd">
<svg version="1.0" xmlns="http://www.w3.org/2000/svg"
 width="600.000000pt" height="360.000000pt" viewBox="0 0 600.000000 360.000000"
 preserveAspectRatio="xMidYMid meet">

<g transform="translate(0.000000,360.000000) scale(0.100000,-0.100000)"
fill="#ffffff" stroke="none">
<path d="M2770 2588 c-111 -18 -277 -60 -365 -92 l-90 -32 -3 -53 c-2 -41 0
-52 10 -48 149 65 277 102 443 128 105 17 390 17 485 1 99 -17 283 -63 294
-74 6 -4 18 -8 28 -8 17 0 18 -20 18 -363 0 -415 -3 -437 -75 -548 l-45 -69
-88 0 c-139 0 -230 40 -308 136 -33 40 -39 54 -42 108 -7 113 55 165 211 174
l87 5 35 -37 35 -38 30 64 c83 175 -18 307 -268 348 -43 7 -65 20 -120 65 -91
75 -147 95 -270 95 -117 0 -231 -24 -364 -76 l-98 -37 0 -241 c0 -133 5 -271
10 -309 19 -132 72 -237 173 -345 80 -85 186 -161 382 -273 138 -78 123 -73
153 -53 14 10 56 33 92 52 229 123 423 285 488 409 75 143 74 134 80 580 l4
401 -28 15 c-54 28 -269 87 -387 107 -129 22 -401 26 -507 8z m166 -362 c21
-16 58 -47 81 -69 38 -36 50 -41 138 -58 105 -20 171 -51 199 -94 21 -32 18
-82 -4 -75 -8 2 -50 6 -94 8 -194 9 -417 -98 -537 -258 -46 -61 -99 -169 -119
-242 -7 -27 -18 -48 -25 -48 -29 0 -124 150 -151 239 -27 91 -22 110 54 182
37 36 81 74 97 86 46 32 186 100 222 108 18 3 35 11 38 16 21 34 -229 -37
-355 -101 -33 -16 -62 -30 -65 -30 -3 0 -4 66 -3 148 l3 147 82 28 c113 37
171 46 294 44 100 -2 108 -4 145 -31z m6 -526 c-9 -160 147 -321 342 -352 42
-7 76 -16 76 -20 0 -11 -178 -126 -278 -179 l-83 -44 -82 44 c-147 79 -257
154 -257 176 0 48 63 202 113 274 34 50 146 161 162 161 6 0 9 -24 7 -60z"/>
</g>
</svg>
