<?xml version="1.0" standalone="no"?>
<!DOCTYPE svg PUBLIC "-//W3C//DTD SVG 20010904//EN"
 "http://www.w3.org/TR/2001/REC-SVG-20010904/DTD/svg10.dtd">
<svg version="1.0" xmlns="http://www.w3.org/2000/svg"
 width="177.000000pt" height="177.000000pt" viewBox="0 0 177.000000 177.000000"
 preserveAspectRatio="xMidYMid meet">

<g transform="translate(0.000000,177.000000) scale(0.100000,-0.100000)"
fill="#ffffff" stroke="none">
<path d="M690 1683 c-129 -22 -284 -60 -375 -91 l-110 -38 -3 -52 -3 -53 38
19 c162 82 498 141 733 128 162 -8 373 -49 474 -91 l37 -16 -3 -382 -3 -382
-27 -57 c-15 -32 -41 -78 -58 -103 l-31 -45 -104 0 c-125 0 -186 22 -264 95
-60 56 -81 98 -81 163 0 103 66 152 217 160 l92 5 32 -32 c17 -18 35 -29 39
-24 4 4 17 32 29 62 42 100 17 192 -68 252 -35 25 -162 71 -230 83 -18 3 -54
23 -80 45 -125 104 -171 116 -376 99 -96 -8 -150 -22 -303 -79 l-64 -24 5
-285 c5 -312 9 -339 69 -460 23 -46 60 -92 128 -160 103 -103 167 -149 360
-259 122 -69 125 -70 149 -54 14 9 55 32 91 51 237 127 424 286 492 417 73
144 72 135 73 580 l0 400 -140 46 c-195 65 -348 89 -550 88 -88 -1 -171 -4
-185 -6z m104 -353 c23 -11 68 -44 101 -73 57 -51 64 -54 140 -66 137 -21 231
-83 223 -148 l-3 -28 -110 3 c-128 4 -201 -11 -310 -64 -166 -81 -291 -233
-341 -413 -23 -81 -40 -80 -104 7 -58 78 -91 155 -98 230 l-5 54 54 55 c30 30
74 69 99 88 53 39 172 100 232 120 l43 14 -45 -5 c-79 -10 -187 -43 -276 -84
-48 -22 -91 -40 -96 -40 -5 0 -7 66 -6 148 l3 147 82 28 c104 34 165 44 282
46 76 1 103 -3 135 -19z m36 -544 c0 -53 6 -75 36 -134 57 -116 167 -192 310
-215 41 -6 73 -16 71 -22 -9 -29 -325 -215 -365 -215 -14 0 -73 27 -131 61
-161 93 -211 129 -211 153 0 49 63 202 113 275 37 54 146 161 164 161 9 0 13
-19 13 -64z"/>
</g>
</svg>
