
<svg xmlns="http://www.w3.org/2000/svg" viewBox="0 0 64 64" aria-labelledby="title"
aria-describedby="desc" role="img" xmlns:xlink="http://www.w3.org/1999/xlink">
  <title>Satellite</title>
  <desc>A line styled icon from Orion Icon Library.</desc>
  <path data-name="layer2"
  d="M29.9 53.9a14.6 14.6 0 0 0-2.1-17.7 14.6 14.6 0 0 0-17.7-2.1z" fill="none"
  stroke="#ffffff" stroke-miterlimit="10" stroke-width="3" stroke-linejoin="round"
  stroke-linecap="round"></path>
  <path data-name="layer1" d="M20.4 54.1A10.5 10.5 0 0 1 9.9 43.6m-7.9.3A18.1 18.1 0 0 0 20.1 62"
  fill="none" stroke="#ffffff" stroke-miterlimit="10" stroke-width="3" stroke-linejoin="round"
  stroke-linecap="round"></path>
  <path data-name="layer2" d="M34.9 40.4a2 2 0 0 1-2.8 0L23.6 32a2 2 0 0 1 0-2.8l12.7-12.8a2 2 0 0 1 2.8 0l8.5 8.5a2 2 0 0 1 0 2.8zM8.067 10.748l8.486-8.485L29.28 14.99l-8.485 8.485zm32.463 32.6l8.484-8.485L61.742 47.59l-8.485 8.485zM25 19.2l4.2 4.3m11.3 11.3l4.3 4.2"
  fill="none" stroke="#ffffff" stroke-miterlimit="10" stroke-width="3" stroke-linejoin="round"
  stroke-linecap="round"></path>
  <path data-name="layer1" fill="none" stroke="#ffffff" stroke-miterlimit="10"
  stroke-width="3" d="M43.4 20.7l6.7-6.7" stroke-linejoin="round" stroke-linecap="round"></path>
</svg>
